<svg preserveAspectRatio="none" width="100%" height="100%" overflow="visible" style="display: block;" viewBox="0 0 203.097 124.747" fill="none" xmlns="http://www.w3.org/2000/svg">
<path id="Vector" d="M202.569 65.1879C203.069 64.9049 203.245 64.27 202.963 63.7698L198.352 55.6171C198.069 55.1168 197.434 54.9406 196.934 55.2236C196.433 55.5065 196.257 56.1414 196.54 56.6417L200.638 63.8885L193.392 67.987C192.892 68.2699 192.715 68.9048 192.998 69.4051C193.281 69.9053 193.916 70.0816 194.417 69.7985L202.569 65.1879ZM0.164393 2.31435L0.328786 3.34197C7.98095 2.11782 24.6751 1.33269 43.0288 3.17266C61.3988 5.01427 81.2598 9.47019 95.3576 18.6131L95.9237 17.7401L96.4898 16.8669C81.9737 7.4521 61.7135 2.95402 43.2364 1.10168C24.7429 -0.752307 7.86439 0.0286361 0 1.28674L0.164393 2.31435ZM95.9237 17.7401L95.3576 18.6131C112.731 29.8809 122.835 41.9804 128.606 53.5822C134.378 65.1876 135.846 76.361 135.846 85.8243H136.887H137.928C137.928 76.139 136.424 64.6266 130.469 52.6553C124.513 40.6802 114.136 28.3119 96.4898 16.8669L95.9237 17.7401ZM136.887 85.8243H135.846C135.846 101.052 126.56 112.697 115.005 118.539C103.41 124.401 89.817 124.297 81.1967 116.438L80.496 117.207L79.7945 117.976C89.262 126.607 103.865 126.503 115.944 120.396C128.063 114.27 137.928 101.98 137.928 85.8243H136.887ZM80.496 117.207L81.1967 116.438C74.3455 110.193 70.7517 101.33 71.4989 92.0691C72.2447 82.8181 77.3337 73.0746 88.0326 65.1171L87.4116 64.282L86.7907 63.447C75.6776 71.7126 70.2251 81.9745 69.4245 91.9019C68.6244 101.819 72.4786 111.307 79.7945 117.976L80.496 117.207ZM87.4116 64.282L88.0326 65.1171C98.669 57.2058 114.621 53.7615 134.244 54.0626C153.842 54.3633 176.958 58.3972 201.778 65.2848L202.057 64.282L202.335 63.2792C177.413 56.3636 154.112 52.2858 134.276 51.9815C114.467 51.6776 97.9655 55.1349 86.7907 63.447L87.4116 64.282Z" fill="var(--fill-0, #702E25)"/>
</svg>
