<svg preserveAspectRatio="none" width="100%" height="100%" overflow="visible" style="display: block;" viewBox="0 0 97.91 97.91" fill="none" xmlns="http://www.w3.org/2000/svg">
<g id="6872819df5ae9dcebcacbcaf_the-creative-playground-sticker.svg" clip-path="url(#clip0_0_4)">
<path id="Vector" d="M48.955 97.91C75.9921 97.91 97.91 75.9921 97.91 48.955C97.91 21.9179 75.9921 0 48.955 0C21.9179 0 0 21.9179 0 48.955C0 75.9921 21.9179 97.91 48.955 97.91Z" fill="var(--fill-0, #702E25)"/>
<path id="Vector_2" d="M60.4219 40.0694C58.5995 39.2061 56.5502 39.3369 54.9108 40.2438C55.0852 37.8371 53.7947 35.4652 51.4838 34.3665C48.4753 32.9363 44.8826 34.2182 43.4525 37.2266C42.9032 38.3952 42.7549 39.6422 42.9554 40.8281C42.7026 40.6624 42.441 40.5054 42.162 40.3747C39.1535 38.9445 35.5607 40.2264 34.1307 43.2349C32.7005 46.2433 33.9824 49.836 36.9909 51.2661C37.7234 51.6149 38.482 51.798 39.2407 51.8417C38.8396 52.2776 38.4907 52.7834 38.2204 53.3502C36.7903 56.3587 38.0721 59.9514 41.0806 61.3815C44.0891 62.8116 47.6818 61.5298 49.1119 58.5213C49.1119 58.5213 49.1119 58.5039 49.1206 58.4952C49.6961 59.716 50.6815 60.7624 51.9895 61.3815C54.998 62.8116 58.5908 61.5298 60.0208 58.5213C61.1894 56.0709 60.5441 53.2282 58.643 51.4841C60.5876 51.2225 62.3665 50.0104 63.2734 48.1007C64.7036 45.0923 63.4217 41.4996 60.4132 40.0694H60.4219Z" fill="var(--fill-0, #EBDEFF)"/>
<path id="Vector_3" d="M14.4494 65.5235L23.4051 60.9629L24.155 62.4453L15.1994 67.006L16.2807 69.1512L14.9203 69.84L12.0078 64.076L13.3682 63.3871L14.4494 65.5322V65.5235Z" fill="var(--fill-0, #FFFBF1)"/>
<path id="Vector_4" d="M20.3966 49.7052L20.7018 51.3359L15.5656 52.2776L16.586 57.78L21.7221 56.8383L22.0273 58.469L10.6388 60.553L10.3336 58.9224L15.0599 58.0591L14.0396 52.5567L9.31332 53.4199L9.00805 51.7893L20.3879 49.7052H20.3966Z" fill="var(--fill-0, #FFFBF1)"/>
<path id="Vector_5" d="M20.632 48.6151L9.10397 47.4118L9.59236 42.354L11.1096 42.511L10.7783 45.9206L14.1094 46.2694L14.432 42.9471L15.9319 43.104L15.6093 46.4263L19.2718 46.8101L19.6118 43.3482L21.1291 43.5051L20.632 48.6151Z" fill="var(--fill-0, #FFFBF1)"/>
<path id="Vector_6" d="M24.6869 31.4103C25.0183 32.448 25.1404 33.9565 24.3556 35.5437C22.7685 38.7701 19.4374 39.7904 16.3156 38.2032C13.2112 36.6336 11.9904 33.2851 13.5513 30.1197C14.2228 28.7593 15.2343 27.8001 16.4115 27.3641L17.0568 28.7855C16.2371 29.1256 15.4174 29.8058 14.9116 30.8173C13.7606 33.1543 14.7372 35.4739 17.0743 36.6598C19.4112 37.8458 21.8704 37.1046 22.9865 34.846C23.5708 33.6513 23.44 32.5526 23.2306 31.7678L24.6782 31.4277L24.6869 31.4103Z" fill="var(--fill-0, #FFFBF1)"/>
<path id="Vector_7" d="M25.4194 24.6434L31.445 26.4136L30.2329 27.6868L24.5562 25.995L23.6144 26.9891L27.4077 30.6604L26.274 31.855L17.8853 23.7365L19.9519 21.5565C21.443 19.9868 23.0737 19.8386 24.5736 21.2948C25.6026 22.289 25.8555 23.4923 25.4194 24.6347V24.6434ZM20.0565 23.5621L22.6029 26.0212L23.4835 25.0969C24.2945 24.2423 24.1986 23.3179 23.4138 22.5506C22.6377 21.8007 21.7482 21.7832 20.9373 22.6291L20.0565 23.5534V23.5621Z" fill="var(--fill-0, #FFFBF1)"/>
<path id="Vector_8" d="M31.7067 26.4921L25.4631 16.6122L29.7098 13.8914L30.5294 15.1907L27.6692 17.022L29.4743 19.8822L32.2647 18.0946L33.0757 19.3765L30.2853 21.1641L32.2735 24.3033L35.1773 22.4459L35.997 23.7452L31.7154 26.4921H31.7067Z" fill="var(--fill-0, #FFFBF1)"/>
<path id="Vector_9" d="M41.7697 17.6324L37.6015 18.8794L37.3312 22.9866L35.779 23.4488L36.59 10.9964L38.2381 10.4994L45.9467 20.3967L44.2986 20.8937L41.7697 17.6324ZM37.6887 17.3708L40.828 16.429L38.0026 12.7753L37.6887 17.3708Z" fill="var(--fill-0, #FFFBF1)"/>
<path id="Vector_10" d="M47.9436 10.5865L48.4756 20.728L46.8362 20.8065L46.3042 10.665L43.9324 10.7784L43.8539 9.24362L50.237 8.93844L50.3155 10.4731L47.9436 10.5865Z" fill="var(--fill-0, #FFFBF1)"/>
<path id="Vector_11" d="M53.2106 21.042L51.5799 20.8414L52.9141 9.2349L54.5448 9.43545L53.2106 21.042Z" fill="var(--fill-0, #FFFBF1)"/>
<path id="Vector_12" d="M57.5009 9.60987L59.2362 10.2464L59.3932 20.5362L66.0031 12.7317L67.6424 13.3334L59.4978 22.7598L57.841 22.1495L57.5097 9.60987H57.5009Z" fill="var(--fill-0, #FFFBF1)"/>
<path id="Vector_13" d="M63.6748 24.7655L70.4242 15.3129L74.514 18.3039L73.6245 19.5509L70.8689 17.5365L68.9156 20.2659L71.6101 22.2279L70.7294 23.4575L68.0348 21.4955L65.8897 24.5039L68.6889 26.5444L67.7994 27.7914L63.6661 24.7742L63.6748 24.7655Z" fill="var(--fill-0, #FFFBF1)"/>
<path id="Vector_14" d="M76.0836 29.4483L75.2813 28.3408L71.0869 31.4016L70.119 30.0586L79.4757 23.2133L81.2459 25.6637C82.5191 27.4339 82.3883 29.082 80.7053 30.3028C79.0572 31.5062 77.2608 31.0876 76.0749 29.4395L76.0836 29.4483ZM79.2839 25.4108L76.4412 27.4862L77.1911 28.5239C77.8799 29.4831 78.8043 29.5616 79.6851 28.9163C80.5483 28.2797 80.7227 27.4077 80.0338 26.4485L79.2839 25.4108Z" fill="var(--fill-0, #FFFBF1)"/>
<path id="Vector_15" d="M74.0867 35.9273L84.7428 31.419L85.3883 32.9451L76.1359 36.8604L77.4526 39.9909L76.0487 40.5839L74.0867 35.9273Z" fill="var(--fill-0, #FFFBF1)"/>
<path id="Vector_16" d="M81.0279 47.4118L80.5222 43.043L76.5632 42.0227L76.3714 40.392L88.3878 43.4615L88.5886 45.1881L77.6183 51.0481L77.4178 49.3215L81.0366 47.403L81.0279 47.4118ZM81.9697 43.4092L82.3534 46.6967L86.3998 44.5603L81.9697 43.4092Z" fill="var(--fill-0, #FFFBF1)"/>
<path id="Vector_17" d="M88.9371 50.6034L88.6758 52.4433L84.3594 54.1263L88.0211 57.0214L87.7689 58.7741L82.676 54.6583L76.7812 53.7601L77.0167 52.1206L82.894 53.0101L88.9454 50.6034H88.9371Z" fill="var(--fill-0, #FFFBF1)"/>
<path id="Vector_18" d="M72.3078 65.6107L72.9966 64.1457L73.7728 64.5207C73.5547 63.6836 73.5634 62.4366 74.1826 61.1111C75.6476 57.9718 78.9089 56.7947 82.1354 58.3469C85.2398 59.838 86.5475 63.1953 85.0655 66.3607C84.0715 68.4797 82.5453 69.3342 81.3069 69.561L80.9233 68.0088C81.8476 67.7821 82.9812 67.2065 83.6965 65.6805C84.7428 63.4395 83.801 61.0588 81.4029 59.9077C78.9787 58.7393 76.5893 59.5677 75.5342 61.8262C74.9325 63.1081 74.9499 64.3027 75.2813 65.2183L77.13 66.1078L78.0282 64.1894L79.3013 64.7997L77.7142 68.2006L72.3252 65.6107H72.3078Z" fill="var(--fill-0, #FFFBF1)"/>
<path id="Vector_19" d="M72.3776 73.3717L66.3693 71.5754L67.5902 70.3022L73.2583 72.0201L74.2087 71.026L70.4329 67.3374L71.5666 66.1514L79.9117 74.3047L77.8364 76.4674C76.3364 78.0283 74.7058 78.1678 73.2147 76.7115C72.1856 75.7087 71.9415 74.5053 72.3776 73.363V73.3717ZM77.7317 74.4791L75.2028 72.0026L74.3222 72.9269C73.5112 73.7729 73.5984 74.7059 74.3831 75.4733C75.1593 76.2319 76.04 76.2493 76.8597 75.4035L77.7405 74.4879L77.7317 74.4791Z" fill="var(--fill-0, #FFFBF1)"/>
<path id="Vector_20" d="M67.468 84.5859C64.3463 86.2081 60.9977 85.0307 59.4019 81.9349C57.8149 78.8567 58.7828 75.3948 61.8872 73.7816C64.9916 72.1683 68.3052 73.3019 69.9184 76.45C71.5229 79.5717 70.494 83.0078 67.4593 84.5859H67.468ZM62.5935 75.1506C60.335 76.3191 59.7158 78.7782 60.928 81.1239C62.1314 83.4699 64.5206 84.3769 66.753 83.2252C68.9941 82.0657 69.6046 79.5892 68.4011 77.2434C67.189 74.8803 64.7997 74.0083 62.6022 75.1506H62.5935Z" fill="var(--fill-0, #FFFBF1)"/>
<path id="Vector_21" d="M56.7684 80.9321L57.5707 88.1696L55.94 88.3439L55.1378 81.1065C54.9372 79.2578 53.9692 78.1242 52.0508 78.3248C50.2545 78.5166 49.4609 79.8944 49.6615 81.7081L50.4637 88.9288L48.8505 89.1031L48.0483 81.8651C47.7518 79.1967 49.1034 77.0952 51.8939 76.7987C54.8587 76.4848 56.4545 78.1678 56.7597 80.9408L56.7684 80.9321Z" fill="var(--fill-0, #FFFBF1)"/>
<path id="Vector_22" d="M43.1127 85.6937L45.1445 77.0777L46.7054 77.4614L44.0283 88.8152L42.3802 88.4144L38.7003 78.2986L36.651 87.0096L35.0901 86.6263L37.7672 75.2727L39.3804 75.6651L43.1127 85.6937Z" fill="var(--fill-0, #FFFBF1)"/>
<path id="Vector_23" d="M29.1604 83.5828C25.9949 81.5687 25.3148 78.4468 27.1809 75.4558C29.0296 72.4735 32.1427 71.7061 35.2994 73.7118L36.9301 74.7495L30.7997 84.6291L29.1691 83.5919L29.1604 83.5828ZM34.7587 75.1157L34.4622 74.9239C32.2299 73.485 30.0935 74.0519 28.6546 76.3715C27.2158 78.6823 27.6256 80.871 29.8929 82.2924L30.1894 82.4843L34.7587 75.1157Z" fill="var(--fill-0, #FFFBF1)"/>
</g>
<defs>
<clipPath id="clip0_0_4">
<rect width="97.91" height="97.91" fill="white"/>
</clipPath>
</defs>
</svg>
