<svg preserveAspectRatio="none" width="100%" height="100%" overflow="visible" style="display: block;" viewBox="0 0 91.6384 91.5909" fill="none" xmlns="http://www.w3.org/2000/svg">
<path id="Vector" d="M79.4291 35.2968C79.1441 35.2968 78.9065 35.2968 78.669 35.2968C78.9065 35.1543 79.0966 34.9643 79.2866 34.8218C84.8922 30.1187 85.5573 21.7578 80.8543 16.1522C76.1512 10.5466 67.7903 9.88155 62.1847 14.5846C61.9947 14.7746 61.8047 14.9171 61.6147 15.1071C61.6147 14.8221 61.6622 14.5846 61.7097 14.347C62.3272 7.03124 56.9117 0.665548 49.5959 0.0479808C42.2801 -0.569586 35.9144 4.846 35.2968 12.1618C35.2968 12.4468 35.2968 12.6844 35.2968 12.9219C35.1543 12.6844 34.9643 12.4943 34.8218 12.3043C30.1187 6.6987 21.7578 6.03363 16.1522 10.7366C10.5466 15.4397 9.88155 23.8006 14.5846 29.4062C14.7746 29.5962 14.9171 29.7862 15.1071 29.9762C14.8221 29.9762 14.5846 29.9287 14.347 29.8812C7.03124 29.2637 0.618043 34.6792 0.0479808 41.995C-0.569586 49.3108 4.846 55.6765 12.1618 56.2941C12.4468 56.2941 12.6844 56.2941 12.9694 56.2941C12.7319 56.4366 12.5418 56.6266 12.3518 56.7691C6.74621 61.4721 6.08114 69.8331 10.7841 75.4387C15.4872 81.0443 23.8481 81.7093 29.4537 77.0063C29.6437 76.8163 29.8337 76.6738 30.0237 76.4838C30.0237 76.7688 29.9762 77.0063 29.9287 77.2439C29.3112 84.5597 34.7267 90.9253 42.0425 91.5429C49.3583 92.1605 55.724 86.7449 56.3416 79.4291C56.3416 79.1441 56.3416 78.9065 56.3416 78.669C56.4841 78.9065 56.6741 79.0966 56.8166 79.2866C61.5196 84.8922 69.8806 85.5573 75.4862 80.8542C81.0918 76.1512 81.7568 67.7903 77.0538 62.1847C76.8638 61.9947 76.7213 61.8047 76.5313 61.6147C76.8163 61.6147 77.0538 61.6622 77.2914 61.7097C84.6072 62.3272 90.9729 56.9117 91.5904 49.5959C92.208 42.2801 86.7924 35.9144 79.4766 35.2968H79.4291Z" fill="var(--fill-0, #FFDBD6)"/>
</svg>
